<svg xmlns="http://www.w3.org/2000/svg" width="63.718" height="63.718" viewBox="0 0 63.718 63.718">
  <g id="face03_animation" transform="translate(2 2)">
    <circle id="Ellipse_20" data-name="Ellipse 20" cx="29.859" cy="29.859" r="29.859" fill="none" stroke="#000" stroke-width="4"/>
    <path id="Path_945" data-name="Path 945" d="M86.113,425.574A27.291,27.291,0,0,0,80.785,409.7h3.744a24.3,24.3,0,0,1,0,31.748H80.785a27.378,27.378,0,0,0,5.328-15.874" transform="translate(-45.106 -395.201)"/>
    <path id="Path_946" data-name="Path 946" d="M68.365,424.818a2.862,2.862,0,0,1,5.723,0,2.862,2.862,0,0,1-5.723,0m0,10.547a2.862,2.862,0,1,1,2.843,2.808,2.8,2.8,0,0,1-2.843-2.808" transform="translate(-45.106 -395.201)"/>
    <path id="Path_947" data-name="Path 947" d="M86.113,425.574A27.291,27.291,0,0,0,80.785,409.7h3.744a24.3,24.3,0,0,1,0,31.748H80.785a27.378,27.378,0,0,0,5.328-15.874" transform="translate(-45.106 -395.201)"/>
  </g>
</svg>
