<svg xmlns="http://www.w3.org/2000/svg" width="63.718" height="63.718" viewBox="0 0 63.718 63.718">
  <g id="face02_animation" transform="translate(2 2)">
    <circle id="Ellipse_19" data-name="Ellipse 19" cx="29.859" cy="29.859" r="29.859" fill="none" stroke="#000" stroke-width="4"/>
    <path id="Path_914" data-name="Path 914" d="M66.7,268.545,69.02,259.7l4.261,1.193-3.8,8.534Zm1.949-16.727a2.88,2.88,0,0,1,5.759,0,2.88,2.88,0,0,1-5.759,0" transform="translate(-45.106 -222.201)"/>
    <path id="Path_915" data-name="Path 915" d="M86.113,252.574A27.291,27.291,0,0,0,80.785,236.7h3.744a24.3,24.3,0,0,1,0,31.748H80.785a27.378,27.378,0,0,0,5.328-15.874" transform="translate(-45.106 -222.201)"/>
  </g>
</svg>
