<svg id="RV_STAMP_WEBDESK" xmlns="http://www.w3.org/2000/svg" xmlns:xlink="http://www.w3.org/1999/xlink" width="150" height="150" viewBox="0 0 150 150">
  <defs>
    <clipPath id="clip-path">
      <rect id="Rectangle_683" data-name="Rectangle 683" width="150" height="150" fill="none"/>
    </clipPath>
  </defs>
  <g id="Group_194" data-name="Group 194" clip-path="url(#clip-path)">
    <path id="Path_791" data-name="Path 791" d="M150,75A75,75,0,1,1,75,0a75,75,0,0,1,75,75" fill="#e6e6e6"/>
    <path id="Path_792" data-name="Path 792" d="M42.748,28.276a1.792,1.792,0,1,1,2.477.535,1.778,1.778,0,0,1-2.477-.535"/>
    <path id="Path_793" data-name="Path 793" d="M51.205,17.095l2.877-.976c3.3-1.121,5.546.217,6.482,2.975l.041.12c.937,2.757,0,5.264-3.331,6.394l-2.85.968Zm5.545,7.139c2.121-.721,2.729-2.287,2.016-4.382l-.036-.106c-.693-2.042-2.04-2.96-4.268-2.2l-1.021.346,2.274,6.7Z"/>
    <path id="Path_794" data-name="Path 794" d="M63.469,13.535l6.2-.853.2,1.457-4.355.6.374,2.719,3.5-.481.19,1.387-3.5.481.4,2.9,4.592-.631.2,1.456-6.436.886Z"/>
    <path id="Path_795" data-name="Path 795" d="M73.336,19.339l1.791.072c.085,1.013.457,1.868,2.15,1.937,1.105.045,1.914-.539,1.951-1.463s-.41-1.292-2.022-1.623c-2.38-.419-3.484-1.192-3.409-3.067.066-1.637,1.515-2.812,3.6-2.728,2.155.087,3.4,1.118,3.522,3.043l-1.708-.068c-.139-1.057-.723-1.53-1.87-1.576s-1.743.477-1.775,1.246c-.032.812.287,1.231,2.012,1.553,2.338.416,3.528,1.138,3.447,3.138-.07,1.735-1.594,3.033-3.8,2.944-2.729-.11-3.822-1.513-3.885-3.408"/>
    <rect id="Rectangle_680" data-name="Rectangle 680" width="10.01" height="1.876" transform="translate(83.731 23.278) rotate(-79.433)"/>
    <path id="Path_796" data-name="Path 796" d="M90.012,19.4l.038-.1a4.861,4.861,0,0,1,6.439-3.108c2.015.729,3.472,2.3,2.909,4.64l-1.752-.633a2.169,2.169,0,0,0-1.631-2.614c-1.843-.667-3.4.317-4.152,2.384l-.039.106c-.728,2.015-.292,3.735,1.683,4.449a2.433,2.433,0,0,0,3.4-1.451l-2.371-.857.477-1.317,4.1,1.481-.314.869c-.943,2.607-3.147,3.6-5.807,2.635-3.015-1.09-3.977-3.7-2.973-6.479"/>
    <path id="Path_797" data-name="Path 797" d="M105.013,20.089l1.877,1.193-.326,8.366,3.882-6.106,1.428.908-5.367,8.445-1.63-1.036.311-8.89-4.114,6.473-1.429-.909Z"/>
    <path id="Path_798" data-name="Path 798" d="M118.22,41.7l-.451,2.608-1.4-1.622.226-1.3a3.611,3.611,0,0,1-2.661-1.329c-1.271-1.475-1.311-3.215.016-4.358,1.112-.959,2.354-.827,3.719-.229a3.339,3.339,0,0,1,.983-1.883,2.493,2.493,0,0,1,3.636.508,2.283,2.283,0,0,1,0,3.325c-.88.759-2.018.7-3.292.084l-.481,2.743,2.151-.505,1,1.156Zm-1.374-1.679.572-3.3a1.887,1.887,0,0,0-2.177.195,1.547,1.547,0,0,0-.118,2.374,2.162,2.162,0,0,0,1.723.734m2.256-3.645c.94.427,1.536.432,2.129-.08a.945.945,0,0,0,.114-1.392,1.068,1.068,0,0,0-1.624-.06,2.462,2.462,0,0,0-.619,1.532"/>
    <path id="Path_799" data-name="Path 799" d="M124.791,48.51l5.665-2.521.762,1.712-5.536,2.465c-1.676.745-2.127,1.59-1.524,2.946.587,1.317,1.47,1.719,3.363.877l5.422-2.413.763,1.713-5.563,2.477c-2.391,1.063-4.283.358-5.359-2.059-1.018-2.288-.346-4.15,2.007-5.2"/>
    <rect id="Rectangle_681" data-name="Rectangle 681" width="10.009" height="1.876" transform="translate(125.421 60.478) rotate(-15.043)"/>
    <path id="Path_800" data-name="Path 800" d="M137.848,66.974l.21,1.427-12.507-2.16-.209-1.413Z"/>
    <path id="Path_801" data-name="Path 801" d="M131.343,72.29l6.2.135L137.5,74.3l-6.059-.132c-1.833-.04-2.6.531-2.634,2.015-.031,1.44.6,2.182,2.667,2.227l5.933.13-.041,1.874-6.086-.132c-2.617-.057-4.027-1.5-3.97-4.146.055-2.505,1.457-3.9,4.032-3.846"/>
    <path id="Path_802" data-name="Path 802" d="M131.459,86.583l5.406-1.86-.458,2.048-3.933,1.3,3.008,2.837-.418,1.871L131,88.846l-5.752,2,.464-2.075,4.322-1.444-3.3-3.145.415-1.858Z"/>
    <path id="Path_803" data-name="Path 803" d="M131.437,102.079l-1.534,2.832c-1.067,1.971-2.642,2.79-4.489,1.79l-.049-.026c-1.86-1.007-1.958-2.8-.937-4.681l.666-1.23-3.349-1.814.887-1.638Zm-5.807.518a1.621,1.621,0,0,0,.6,2.477l.049.027c1.047.566,1.787.171,2.353-.876l.647-1.194-3.005-1.627Z"/>
    <path id="Path_804" data-name="Path 804" d="M122.061,108.338l.085.072a4.913,4.913,0,0,1,.613,7.161,4.84,4.84,0,0,1-7.113.579l-.086-.073a5.054,5.054,0,1,1,6.5-7.739m-5.263,6.256.085.072c1.571,1.33,3.477,1.441,4.744-.054s.917-3.314-.728-4.707l-.085-.073c-1.666-1.412-3.605-1.31-4.781.077-1.222,1.443-.891,3.283.765,4.685"/>
    <path id="Path_805" data-name="Path 805" d="M115.861,122.46l-2.659,2.055c-1.739,1.344-3.505,1.576-4.755-.041l-.035-.045a2.641,2.641,0,0,1,.119-3.487l-4.872-1.7,1.6-1.233,4.545,1.6.942-.728-2.474-3.2,1.474-1.139Zm-5.492-1.612c-.986.762-1.182,1.585-.531,2.427l.034.044c.7.909,1.507.782,2.449.054l1.185-.916-1.952-2.525Z"/>
    <path id="Path_806" data-name="Path 806" d="M103.911,128.816l2.472-1.284.677,1.3-6.607,3.434-.678-1.305,2.471-1.284-3.937-7.576,1.665-.865Z"/>
    <path id="Path_807" data-name="Path 807" d="M96.639,133.77l-5.908,1.886-.451-1.413,4.134-1.321-.907-2.84-3.254,1.039-.438-1.374,3.254-1.039L91.822,124.8l1.773-.566Z"/>
    <path id="Path_808" data-name="Path 808" d="M86.441,131.581l.012.111a4.914,4.914,0,0,1-4.471,5.629,4.841,4.841,0,0,1-5.572-4.463l-.012-.111a5.055,5.055,0,1,1,10.043-1.166m-8.124.937.012.111c.229,2.045,1.54,3.435,3.488,3.217s2.943-1.78,2.7-3.924l-.012-.111c-.243-2.171-1.722-3.429-3.531-3.227-1.879.211-2.9,1.777-2.66,3.934"/>
    <path id="Path_809" data-name="Path 809" d="M72.369,137.571l-1.854-.156.715-8.494-4.254-.359.125-1.477,6.108.514Z"/>
    <rect id="Rectangle_682" data-name="Rectangle 682" width="10.011" height="1.876" transform="translate(60.518 135.898) rotate(-77.564)"/>
    <path id="Path_810" data-name="Path 810" d="M58.056,130.2l-.042.1a4.912,4.912,0,0,1-6.611,2.816,4.84,4.84,0,0,1-2.769-6.577l.042-.1a5.054,5.054,0,1,1,9.38,3.763m-7.585-3.049-.042.1c-.774,1.907-.284,3.751,1.532,4.489s3.434-.162,4.245-2.159l.042-.1c.821-2.023.121-3.834-1.565-4.518-1.751-.71-3.4.177-4.212,2.188"/>
    <path id="Path_811" data-name="Path 811" d="M41.757,122.206l-.073.085a4.912,4.912,0,0,1-7.16.624,4.84,4.84,0,0,1-.59-7.113l.073-.086a5.054,5.054,0,1,1,7.75,6.49m-6.265-5.254-.072.085c-1.328,1.572-1.436,3.479.062,4.744s3.315.912,4.706-.734l.073-.086c1.409-1.669,1.305-3.608-.085-4.781-1.444-1.22-3.284-.886-4.684.772"/>
    <path id="Path_812" data-name="Path 812" d="M27.527,115.969l-1.341-1.776,3.234-7.725-5.774,4.363-1.021-1.351,7.986-6.033,1.164,1.541-3.4,8.22,6.121-4.624,1.021,1.352Z"/>
    <path id="Path_813" data-name="Path 813" d="M17.64,100.265,16.458,97.12c-.774-2.058-.478-3.816,1.436-4.535l.052-.02a2.643,2.643,0,0,1,3.3,1.138l3.059-4.157.71,1.887L22.15,95.308l.418,1.115L26.357,95l.655,1.743ZM20.8,95.488c-.439-1.166-1.168-1.6-2.165-1.221l-.052.021c-1.075.4-1.191,1.21-.772,2.324l.528,1.4,2.988-1.123Z"/>
    <path id="Path_814" data-name="Path 814" d="M13.945,88.983l-1.1-6.158,1.447-.259.771,4.327,2.7-.481-.619-3.473,1.378-.245.619,3.472,2.879-.514-.813-4.561,1.447-.257,1.14,6.393Z"/>
    <path id="Path_815" data-name="Path 815" d="M22.324,71.948a5.654,5.654,0,0,1,.294,1.937,4.867,4.867,0,0,1-5.19,4.955l-.112,0a4.9,4.9,0,0,1-4.968-5.177A4.847,4.847,0,0,1,17.5,68.72l.112,0a5.086,5.086,0,0,1,3.936,1.822l1.213-1.08,1.067,1.143Zm-1.242,1.106L20,74.01l-1.04-1.156,1.357-1.2a4.026,4.026,0,0,0-2.751-.983l-.111,0c-2.058-.045-3.594,1.07-3.636,3.03s1.372,3.165,3.527,3.213l.113,0c2.238.049,3.653-1.264,3.692-3.069a3.449,3.449,0,0,0-.067-.786"/>
    <path id="Path_816" data-name="Path 816" d="M19.33,65.442l-6.023-1.479.448-1.823,5.887,1.448c1.781.437,2.655.046,3.009-1.4.345-1.4-.107-2.261-2.119-2.755l-5.764-1.417.447-1.822,5.914,1.454c2.542.625,3.6,2.342,2.974,4.911-.6,2.434-2.272,3.493-4.773,2.878"/>
    <path id="Path_817" data-name="Path 817" d="M16.962,51.523l2.626-5.682,1.334.617-1.844,3.991L21.569,51.6l1.481-3.2,1.271.588-1.481,3.2L25.5,53.416l1.944-4.207,1.335.617-2.726,5.9Z"/>
    <path id="Path_818" data-name="Path 818" d="M27.2,46.305l1.031-1.466c.9.476,1.819.627,2.794-.76a1.66,1.66,0,0,0-.173-2.433c-.756-.53-1.309-.355-2.461.821-1.641,1.776-2.89,2.285-4.425,1.205-1.341-.943-1.544-2.8-.343-4.506,1.241-1.764,2.784-2.255,4.467-1.311l-.983,1.4a1.67,1.67,0,0,0-2.339.719c-.652.929-.544,1.725.087,2.168.664.466,1.19.425,2.4-.852,1.617-1.739,2.868-2.349,4.507-1.2,1.421,1,1.687,2.985.414,4.794-1.571,2.234-3.344,2.394-4.971,1.42"/>
    <path id="Path_819" data-name="Path 819" d="M31.178,32.526l-1.971,1.968-1.038-1.04,5.268-5.261,1.038,1.04L32.505,31.2l6.031,6.041-1.327,1.325Z"/>
    <path id="Path_820" data-name="Path 820" d="M104.824,75.06A29.859,29.859,0,1,1,74.965,45.2,29.859,29.859,0,0,1,104.824,75.06" fill="#e6e6e6"/>
    <path id="Ellipse_16" data-name="Ellipse 16" d="M29.859-2A31.85,31.85,0,0,1,52.387,52.387,31.859,31.859,0,1,1,17.457.5,31.661,31.661,0,0,1,29.859-2Zm0,59.718A27.867,27.867,0,0,0,40.7,4.188,27.867,27.867,0,0,0,19.016,55.53,27.683,27.683,0,0,0,29.859,57.718Z" transform="translate(45.106 45.201)"/>
    <path id="Path_821" data-name="Path 821" d="M59.5,70.74H75.126v3.312H59.5Zm0,6.732H75.126v3.275H59.5Z"/>
    <path id="Path_822" data-name="Path 822" d="M86.107,75.06a27.291,27.291,0,0,0-5.328-15.874h3.744a24.3,24.3,0,0,1,0,31.748H80.779A27.378,27.378,0,0,0,86.107,75.06"/>
  </g>
</svg>
